<?xml version="1.0" encoding="UTF-8" standalone="no"?>
<svg width="2880px" height="1440px" viewBox="0 0 2880 1440" version="1.1" xmlns="http://www.w3.org/2000/svg" xmlns:xlink="http://www.w3.org/1999/xlink" xmlns:sketch="http://www.bohemiancoding.com/sketch/ns">
    <!-- Generator: Sketch 3.3 (11970) - http://www.bohemiancoding.com/sketch -->
    <title>Hookah 2 Copy 5</title>
    <desc>Created with Sketch.</desc>
    <defs>
        <radialGradient cx="50%" cy="46.2575955%" fx="50%" fy="46.2575955%" r="93.5731337%" id="radialGradient-1">
            <stop stop-color="#4A6871" offset="0%"></stop>
            <stop stop-color="#212C2F" offset="100%"></stop>
        </radialGradient>
    </defs>
    <g id="Hookah" stroke="none" stroke-width="1" fill="none" fill-rule="evenodd" sketch:type="MSPage">
        <g id="Hookah-2-Copy-5" sketch:type="MSArtboardGroup">
            <rect id="Rectangle-47" fill="url(#radialGradient-1)" sketch:type="MSShapeGroup" x="0" y="0" width="2880" height="1440"></rect>
            <g id="Group" sketch:type="MSLayerGroup" transform="translate(1251.000000, 395.000000)">
                <path d="M218.689598,172.138829 C215.958654,170.246796 212.713807,170.064368 210.889087,171.889087 C209.677683,173.100491 209.350916,174.937806 209.821724,176.83513 L205,181.656854 L211.363961,188.020815 L215.984922,183.399854 L215.984922,183.399854 C218.077045,184.08989 220.164355,183.827023 221.495689,182.495689 C223.433149,180.558229 223.107776,177.019736 220.875741,174.195327 L220.888498,174.182569 C221.469943,173.601124 221.474874,172.646447 220.889087,172.06066 C220.299217,171.47079 219.35329,171.475137 218.767178,172.061249 L218.689598,172.138829 L218.689598,172.138829 Z" id="Rectangle-7-Copy-3" fill="#ACBFC4" sketch:type="MSShapeGroup"></path>
                <path d="M196.831534,100.795746 C203.985007,102.319336 209,105.866839 209,110 C209,115.522847 200.045695,120 189,120 C177.954305,120 169,115.522847 169,110 C169,105.866839 174.014993,102.319336 181.168466,100.795746 C183.448003,102.193899 186.129864,103 189,103 C191.870136,103 194.551997,102.193899 196.831534,100.795746 L196.831534,100.795746 Z" id="Oval-1-Copy-3" fill="#ACBFC4" sketch:type="MSShapeGroup"></path>
                <circle id="Oval-2-Copy-10" fill="#ACBFC4" sketch:type="MSShapeGroup" cx="189" cy="89" r="11"></circle>
                <path d="M199.316644,56 C198.401596,57.509937 196.902805,60.6629086 197,65 L197,74.7829646 C194.889969,73.645442 192.498845,73 190,73 C186.621942,73 183.538694,73.9335367 181,75.5338462 L181,65 C181.095464,60.6037657 179.612499,57.4919565 178.696692,56 L199.316644,56 L199.316644,56 Z" id="Rectangle-42" fill="#ACBFC4" sketch:type="MSShapeGroup"></path>
                <circle id="Oval-2-Copy-11" fill="#ACBFC4" sketch:type="MSShapeGroup" cx="189" cy="154" r="15"></circle>
                <path d="M177.844017,169.317784 C177.937619,170.642671 178,171.927838 178,173 C178,176.707277 176,185 176,185 L202,185 C202,185 200,176.684934 200,173 C200,171.92495 200.06207,170.640733 200.155282,169.3183 C197.022728,171.622538 193.168101,173 189,173 C184.831588,173 180.976697,171.622332 177.844017,169.317784 L177.844017,169.317784 Z" id="Rectangle-30-Copy" fill="#ACBFC4" sketch:type="MSShapeGroup"></path>
                <path d="M163,326 C152.322555,344.174117 136.448529,364.333777 136,364 C129.169403,374.06531 131.002453,387.897662 141,395 C140.635921,395.281753 143.913707,399.194621 155,404 C165.563749,409 189,409 189,409 L189,304 C182.091749,303.656512 175.867213,300.710987 171,296 C170.497168,306.144758 166.489672,319.058852 163,326 Z M215,326 C225.677445,344.174117 241.551471,364.333777 242,364 C248.830597,374.06531 246.997547,387.897662 237,395 C237.364079,395.281753 234.086293,399.194621 223,404 C212.436251,409 189,409 189,409 L189,304 C195.908251,303.656512 202.132787,300.710987 207,296 C207.502832,306.144758 211.510328,319.058852 215,326 Z" id="Rectangle-8-Copy-3" fill="#ACBFC4" sketch:type="MSShapeGroup"></path>
                <path d="M210,278 C210,289.59798 200.59798,299 189,299 C177.40202,299 168,289.59798 168,278 L168,257 L210,257 L210,278 L210,278 Z" id="Oval-4-Copy-8" fill="#ACBFC4" sketch:type="MSShapeGroup"></path>
                <rect id="Rectangle-3-Copy-4" fill="#ACBFC4" sketch:type="MSShapeGroup" x="154" y="35" width="70" height="18"></rect>
                <path d="M206.659425,16 C208.697336,14.3504395 210,11.8284994 210,9.00220644 L210,9.99779356 C210,5.0287627 205.977809,0.772207558 201.016185,0.49121134 C201.016185,0.49121134 193.483409,0 189,0 C184.489248,0 176.98721,0.490479027 176.98721,0.490479027 C172.028407,0.76428025 168,5.02844939 168,9.99779356 L168,9.00220644 C168,11.828378 169.303051,14.3503872 171.34113,16 L171,16 C171,16 174.93437,21.7303903 175,23 C175.96846,25.3126931 176,29 176,29 L202,29 C202,29 201.789342,25.6313652 202,24 C202.823432,22.0490624 207,16 207,16 L206.659425,16 L206.659425,16 Z" id="Rectangle-4-Copy-3" fill="#ACBFC4" sketch:type="MSShapeGroup"></path>
                <path d="M149.470563,168.370058 L166.470563,168.370058 L162.470563,191.370058 L153.470563,191.370058 L149.470563,168.370058 Z M149.470563,160.556349 C149.470563,158.623353 151.03941,157.056349 152.972361,157.056349 L162.968764,157.056349 C164.902754,157.056349 166.470563,158.627286 166.470563,160.556349 L166.470563,164.056349 L149.470563,164.056349 L149.470563,160.556349 Z" id="Rectangle-11-Copy-3" fill="#ACBFC4" sketch:type="MSShapeGroup" transform="translate(157.970563, 173.970563) rotate(-50.000000) translate(-157.970563, -173.970563) "></path>
                <path d="M177.819467,239 L169.004197,239 C165.136676,239 162,242.134007 162,246 C162,249.858127 165.135886,253 169.004197,253 L208.995803,253 C212.863324,253 216,249.865993 216,246 C216,242.141873 212.864114,239 208.995803,239 L200.180533,239 C197.43393,242.068747 193.442499,244 189,244 C184.557501,244 180.56607,242.068747 177.819467,239 L177.819467,239 L177.819467,239 Z" id="Rectangle-12-Copy-3" fill="#ACBFC4" sketch:type="MSShapeGroup"></path>
                <path d="M199.902752,222.465088 C200.607106,224.127947 201,225.997897 201,228 C201,234.403559 195.627417,240 189,240 C182.372583,240 177,234.403559 177,228 C177,225.997897 177.392894,224.127947 178.097248,222.465088 C181.392253,224.085079 185.091376,225 189,225 C192.908624,225 196.607747,224.085079 199.902752,222.465088 L199.902752,222.465088 Z" id="Oval-7-Copy-4" fill="#ACBFC4" sketch:type="MSShapeGroup"></path>
                <circle id="Oval-4-Copy-9" fill="#ACBFC4" sketch:type="MSShapeGroup" cx="189" cy="201" r="21"></circle>
                <path d="M174.697207,122.637195 C176.792864,126.672652 179,131.513099 179,134 C179,139.618279 175,149 175,149 L203,149 C203,149 199,139.677361 199,135 C199,131.981126 201.263391,126.798212 203.382351,122.607501 C199.374208,124.109948 194.394987,125 189,125 C183.640651,125 178.691593,124.121668 174.697207,122.637195 L174.697207,122.637195 Z" id="Rectangle-19-Copy-2" fill="#ACBFC4" sketch:type="MSShapeGroup"></path>
                <path d="M140.027344,159.238281 C140.027344,159.238281 62.3515608,89.9296803 119.886719,201.671875 C177.421877,313.41407 144.988279,311.496091 51.734375,189.296875 C-41.5195286,67.0976595 2.7109375,231.457028 97.8554688,318.210938" id="Path-70" stroke="#ACBFC4" stroke-width="5" stroke-linecap="round" sketch:type="MSShapeGroup"></path>
            </g>
            <text id="HOOKAH" sketch:type="MSTextLayer" font-family="Open Sans" font-size="72" font-weight="normal" fill="#ACBFC4">
                <tspan x="1293.5" y="911">HOOKAH</tspan>
            </text>
            <path d="M1467.05,1288.6 C1464.45,1287.7 1462.75,1285.8 1461.35,1283.5 C1459.35,1280.2 1457.25,1276.9 1455.35,1273.5 C1448.15,1260.6 1440.95,1247.8 1433.75,1234.9 C1433.55,1234.6 1433.35,1234.3 1433.15,1233.9 C1431.95,1234.2 1430.85,1234.5 1429.65,1234.8 C1413.75,1238.9 1397.95,1243 1382.05,1247.1 C1380.15,1247.6 1378.35,1248.1 1376.45,1248.1 C1372.65,1248.1 1369.75,1246.4 1367.75,1243.2 C1367.25,1242.4 1366.85,1241.6 1366.55,1240.7 C1351.95,1209.2 1337.35,1177.6 1322.85,1146.1 C1320.25,1140.5 1317.65,1134.8 1315.15,1129.2 C1314.55,1127.8 1314.15,1126.3 1313.55,1124.8 L1313.25,1124.2 L1313.25,1122.4 C1313.35,1122.1 1313.55,1121.9 1313.65,1121.6 C1313.95,1120.7 1314.55,1120.1 1315.45,1119.7 C1316.15,1119.4 1316.85,1119.2 1317.55,1119.2 C1321.35,1118.8 1325.15,1118.5 1328.95,1118.2 C1334.15,1117.8 1339.45,1117.4 1344.65,1117 C1351.35,1116.5 1358.15,1115.9 1364.85,1115.4 C1365.95,1115.3 1367.05,1115.2 1368.05,1115 L1371.45,1115 C1371.65,1115.1 1371.85,1115.1 1372.05,1115.2 C1373.65,1115.4 1374.85,1116.2 1375.75,1117.6 C1376.55,1118.8 1377.35,1120 1378.15,1121.2 C1397.95,1154.4 1417.85,1187.5 1437.65,1220.7 C1437.85,1221 1438.05,1221.4 1438.35,1221.8 C1463.85,1215.7 1489.35,1209.6 1515.05,1203.4 C1514.75,1203 1514.65,1202.7 1514.45,1202.5 C1506.25,1190.9 1498.15,1179.4 1489.95,1167.8 C1489.65,1167.4 1489.35,1166.9 1489.15,1166.4 C1488.55,1165.2 1488.85,1164.2 1490.05,1163.6 C1490.95,1163.2 1491.85,1162.8 1492.85,1162.6 C1497.55,1161.8 1502.25,1161 1506.85,1160.2 C1513.05,1159.2 1519.25,1158.1 1525.35,1157.1 C1526.95,1156.8 1528.45,1156.6 1530.05,1156.4 C1531.45,1156.2 1532.75,1156.6 1533.95,1157.4 C1535.15,1158.3 1536.15,1159.4 1537.15,1160.5 C1543.45,1168.3 1549.75,1176.1 1556.05,1183.9 C1559.35,1188 1562.75,1192.1 1566.05,1196.2 C1566.35,1196.5 1566.55,1196.9 1566.75,1197.2 L1566.75,1198.8 C1566.15,1199.8 1565.05,1200.1 1564.05,1200.4 C1552.95,1203.4 1541.85,1206.3 1530.75,1209.3 C1530.45,1209.4 1530.05,1209.5 1529.65,1209.6 C1529.95,1210 1530.05,1210.2 1530.25,1210.5 C1535.35,1217.3 1540.35,1224 1545.45,1230.8 C1550.55,1237.6 1555.55,1244.4 1560.55,1251.2 C1560.95,1251.8 1561.35,1252.4 1561.65,1253.1 C1562.25,1254.3 1561.95,1255.3 1560.85,1256 C1560.15,1256.5 1559.45,1256.9 1558.65,1257.1 C1556.15,1258.1 1553.65,1259 1551.15,1259.9 C1530.55,1267.3 1509.95,1274.7 1489.35,1282.1 C1484.35,1283.9 1479.35,1285.6 1474.25,1287.3 C1472.95,1287.7 1471.55,1288 1470.25,1288.4 C1469.15,1288.6 1468.15,1288.6 1467.05,1288.6 L1467.05,1288.6 Z M1366.95,1122.3 C1363.75,1122.6 1360.55,1122.9 1357.25,1123.1 C1353.85,1123.4 1350.55,1123.7 1347.15,1124 C1342.95,1124.4 1338.65,1124.7 1334.45,1125.1 C1331.65,1125.3 1328.85,1125.6 1326.05,1125.8 C1325.35,1125.9 1325.15,1126.1 1325.25,1126.8 C1325.35,1127.2 1325.45,1127.6 1325.65,1127.9 C1325.95,1128.6 1326.25,1129.2 1326.65,1129.9 C1339.55,1156.4 1352.45,1183 1365.25,1209.5 C1369.45,1218.1 1373.55,1226.7 1377.65,1235.3 C1377.85,1235.8 1378.15,1236 1378.65,1235.9 C1379.35,1235.8 1380.05,1235.7 1380.65,1235.5 C1394.45,1232.2 1408.15,1228.9 1421.95,1225.7 C1423.35,1225.4 1424.85,1225 1426.25,1224.7 C1427.25,1224.4 1427.55,1223.9 1427.15,1222.9 C1426.95,1222.4 1426.75,1222 1426.45,1221.6 C1407.55,1189 1388.75,1156.5 1369.85,1123.9 C1368.85,1122.2 1368.85,1122.2 1366.95,1122.3 L1366.95,1122.3 Z M1443.75,1231.2 C1443.95,1231.6 1444.05,1231.8 1444.25,1232 C1449.85,1241.7 1455.55,1251.5 1461.25,1261.2 C1463.45,1265 1465.75,1268.8 1468.05,1272.6 C1468.55,1273.4 1469.15,1274.2 1469.75,1274.9 C1470.45,1275.6 1471.35,1275.8 1472.25,1275.4 C1472.65,1275.2 1473.05,1275.1 1473.45,1275 C1490.15,1269.3 1506.85,1263.6 1523.55,1258 C1531.15,1255.4 1538.75,1252.9 1546.35,1250.3 C1546.75,1250.2 1547.25,1250 1547.65,1249.8 C1548.45,1249.4 1548.55,1249 1548.05,1248.3 C1547.75,1247.8 1547.35,1247.2 1547.05,1246.7 C1544.05,1242.5 1540.95,1238.4 1537.95,1234.2 C1532.95,1227.4 1528.05,1220.6 1523.05,1213.8 C1522.65,1213.2 1522.25,1212.6 1521.75,1212 C1521.25,1211.4 1520.65,1211.1 1519.85,1211.4 C1519.25,1211.6 1518.75,1211.7 1518.15,1211.9 C1510.05,1214 1501.95,1216.1 1493.85,1218.2 C1477.55,1222.4 1461.25,1226.7 1444.95,1230.9 C1444.55,1230.9 1444.15,1231 1443.75,1231.2 L1443.75,1231.2 Z M1523.25,1201.5 C1523.45,1201.5 1523.65,1201.4 1523.85,1201.4 C1533.45,1199 1543.15,1196.7 1552.75,1194.3 C1553.15,1194.2 1553.55,1194.1 1553.95,1193.9 C1554.85,1193.5 1555.05,1193 1554.35,1192.2 C1554.25,1192.1 1554.15,1191.9 1554.05,1191.8 C1546.95,1182.8 1539.95,1173.8 1532.85,1164.9 C1532.75,1164.7 1532.55,1164.5 1532.45,1164.4 C1531.75,1163.6 1530.95,1163.4 1529.85,1163.6 C1521.25,1165.2 1512.65,1166.7 1504.05,1168.3 C1503.05,1168.5 1501.95,1168.6 1500.95,1168.9 C1500.05,1169.1 1499.95,1169.5 1500.35,1170.2 C1500.55,1170.5 1500.75,1170.9 1501.05,1171.2 C1508.25,1181 1515.35,1190.9 1522.55,1200.7 C1522.75,1200.9 1522.95,1201.2 1523.25,1201.5 L1523.25,1201.5 Z" id="Shape" fill="#ACBFC4" sketch:type="MSShapeGroup"></path>
            <text id="+" sketch:type="MSTextLayer" font-family="Open Sans" font-size="49" font-weight="normal" sketch:alignment="middle" fill="#ACBFC4">
                <tspan x="1425.99146" y="1074">+</tspan>
            </text>
            <text id="A-smoke-testing-libr" opacity="0.5" sketch:type="MSTextLayer" font-family="Open Sans" font-size="49" font-weight="normal" sketch:alignment="middle" fill="#ACBFC4">
                <tspan x="1196.73535" y="984">A smoke testing library</tspan>
            </text>
        </g>
    </g>
</svg>