<?xml version="1.0" encoding="UTF-8" standalone="no"?>
<svg width="2880px" height="1440px" viewBox="0 0 2880 1440" version="1.1" xmlns="http://www.w3.org/2000/svg" xmlns:xlink="http://www.w3.org/1999/xlink" xmlns:sketch="http://www.bohemiancoding.com/sketch/ns">
    <!-- Generator: Sketch 3.3 (11970) - http://www.bohemiancoding.com/sketch -->
    <title>weekly_illustration</title>
    <desc>Created with Sketch.</desc>
    <defs>
        <radialGradient cx="48.3756512%" cy="59.6299913%" fx="48.3756512%" fy="59.6299913%" r="66.3096788%" id="radialGradient-1">
            <stop stop-color="#7EDEF4" offset="0%"></stop>
            <stop stop-color="#4ABBD5" offset="100%"></stop>
        </radialGradient>
    </defs>
    <g id="Weekly" stroke="none" stroke-width="1" fill="none" fill-rule="evenodd" sketch:type="MSPage">
        <g id="weekly_illustration" sketch:type="MSArtboardGroup">
            <rect id="Rectangle-17" fill="url(#radialGradient-1)" sketch:type="MSShapeGroup" x="0" y="0" width="2880" height="1440"></rect>
            <ellipse id="Oval-10" fill="#4ABBD4" sketch:type="MSShapeGroup" cx="1372" cy="1011" rx="178" ry="27"></ellipse>
            <text id="WEEKLY" sketch:type="MSTextLayer" font-family="Open Sans" font-size="200" font-weight="bold" fill="#DBF3F8">
                <tspan x="1466" y="1010">WEEKLY</tspan>
            </text>
            <circle id="Oval-1" fill="#CEF0AF" sketch:type="MSShapeGroup" cx="1492" cy="537" r="71"></circle>
            <circle id="Oval-1-Copy" opacity="0.4" fill="#FFFFFF" sketch:type="MSShapeGroup" cx="1492" cy="537" r="58"></circle>
            <rect id="Rectangle-5" fill="#CEF0AF" sketch:type="MSShapeGroup" x="1490" y="477" width="4" height="69"></rect>
            <path d="M1491.76261,537 L1492.23739,537 L1492.54172,537.375821 L1492.54172,537.375821 L1492.43354,537.844429 L1492,538.055879 L1492,538.055879 L1491.56646,537.844429 L1491.45828,537.375821 L1491.76261,537 Z M1490,533.600471 L1490,477 L1494,477 L1494,533.600471 L1494,533.600471 L1537.9016,498.049657 L1540.41888,501.158241 L1496.8025,536.478089 L1551.41631,549.08668 L1550.5165,552.98416 L1495.40213,540.260005 L1495.40213,540.260005 L1520.18218,591.06663 L1516.587,592.820114 L1492,542.409293 L1467.413,592.820114 L1463.81782,591.06663 L1488.59787,540.260005 L1433.4835,552.98416 L1432.58369,549.08668 L1487.1975,536.478089 L1443.58112,501.158241 L1446.0984,498.049657 L1490,533.600471 Z" id="Rectangle-5-Copy" fill="#CEF0AF" sketch:type="MSShapeGroup"></path>
            <path d="M1483.5,521 C1484.88071,521 1486,519.880712 1486,518.5 C1486,517.119288 1484.88071,516 1483.5,516 C1482.11929,516 1481,517.119288 1481,518.5 C1481,519.880712 1482.11929,521 1483.5,521 Z M1499.0331,520.784088 C1499.90201,521.857102 1501.47625,522.022562 1502.54926,521.153652 C1503.62228,520.284742 1503.78774,518.7105 1502.91883,517.637486 C1502.04992,516.564471 1500.47568,516.399012 1499.40266,517.267922 C1498.32965,518.136832 1498.16419,519.711073 1499.0331,520.784088 Z M1508.88041,532.754836 C1508.56982,534.100161 1509.40863,535.442547 1510.75396,535.753139 C1512.09928,536.063732 1513.44167,535.224916 1513.75226,533.879592 C1514.06285,532.534267 1513.22404,531.191881 1511.87871,530.881289 C1510.53339,530.570696 1509.191,531.409512 1508.88041,532.754836 Z M1505.63867,547.949869 C1504.3977,548.555133 1503.88235,550.051806 1504.48762,551.292782 C1505.09288,552.533758 1506.58955,553.049104 1507.83053,552.443839 C1509.0715,551.838575 1509.58685,550.341902 1508.98159,549.100926 C1508.37632,547.859951 1506.87965,547.344605 1505.63867,547.949869 Z M1491.77683,554.892009 C1490.53585,554.286745 1489.03918,554.80209 1488.43392,556.043066 C1487.82865,557.284042 1488.344,558.780715 1489.58497,559.385979 C1490.82595,559.991243 1492.32262,559.475897 1492.92789,558.234922 C1493.53315,556.993946 1493.01781,555.497273 1491.77683,554.892009 Z M1477.67993,548.353683 C1477.36933,547.008359 1476.02695,546.169543 1474.68162,546.480135 C1473.3363,546.790728 1472.49748,548.133114 1472.80808,549.478438 C1473.11867,550.823763 1474.46105,551.662578 1475.80638,551.351986 C1477.1517,551.041393 1477.99052,549.699007 1477.67993,548.353683 Z M1473.99106,533.293392 C1474.85997,532.220377 1474.69451,530.646136 1473.6215,529.777226 C1472.54849,528.908315 1470.97424,529.073775 1470.10533,530.14679 C1469.23642,531.219804 1469.40188,532.794045 1470.4749,533.662955 C1471.54791,534.531866 1473.12215,534.366406 1473.99106,533.293392 Z" id="Oval-3" fill="#CEF0AF" sketch:type="MSShapeGroup"></path>
            <g id="umbrella" sketch:type="MSLayerGroup" transform="translate(1446.359144, 550.298836) rotate(20.000000) translate(-1446.359144, -550.298836) translate(1312.859144, 326.798836)">
                <rect id="Rectangle-14" fill="#EAE0AD" sketch:type="MSShapeGroup" x="125" y="92" width="12" height="354"></rect>
                <polygon id="Triangle-1" fill="#F8B289" sketch:type="MSShapeGroup" points="134 12 267 106 226.851423 109 182.705335 106 133.155763 110 84.5161644 106 40.3274638 110 1 106 "></polygon>
                <path d="M40.4185025,109.093407 L134.738968,18.6936556" id="Line" stroke="#BA7D58" stroke-width="2" stroke-linecap="square" opacity="0.4" sketch:type="MSShapeGroup"></path>
                <path d="M135.5,14 L146,0 L122,0 L132.5,14 L135.5,14 Z" id="Triangle-2" fill="#E9E0AD" sketch:type="MSShapeGroup"></path>
            </g>
            <path d="M1517.5,358.5 L1441.5,422.5" id="Line" stroke="#BA7D58" stroke-width="2" stroke-linecap="square" opacity="0.4" sketch:type="MSShapeGroup"></path>
            <path d="M1517.5,358.5 L1483.5,442.5" id="Line" stroke="#BA7D58" stroke-width="2" stroke-linecap="square" opacity="0.4" sketch:type="MSShapeGroup"></path>
            <circle id="Oval-11" fill="#FFFFFF" sketch:type="MSShapeGroup" cx="1441" cy="848" r="11"></circle>
            <path d="M1517.5,358.5 L1532.5,456.5" id="Line" stroke="#BA7D58" stroke-width="2" stroke-linecap="square" opacity="0.4" sketch:type="MSShapeGroup"></path>
            <path d="M1517.5,358.5 L1574.5,474.5" id="Line" stroke="#BA7D58" stroke-width="2" stroke-linecap="square" opacity="0.4" sketch:type="MSShapeGroup"></path>
            <path d="M1313.44776,449.086919 C1313.44776,439.213055 1230.9136,341.659661 1230.9136,341.659661 C1229.49413,339.975548 1229.46901,337.219584 1230.85785,335.503623 L1237.03317,327.873798 C1238.42186,326.158025 1240.71786,326.130766 1242.14472,327.798674 C1242.14472,327.798674 1333.44776,433.837307 1333.44776,448.997156 L1333.44776,1037.60917 C1333.44776,1039.81696 1331.65529,1041.60673 1329.44853,1041.60673 L1317.44699,1041.60673 C1315.23828,1041.60673 1313.44776,1039.81674 1313.44776,1037.61339 L1313.44776,449.086919 Z" id="Rectangle-4" fill="#618284" sketch:type="MSShapeGroup" transform="translate(1281.640076, 684.086898) rotate(-20.000000) translate(-1281.640076, -684.086898) "></path>
            <path d="M1243,537 L1503,537 L1481.18522,1007.00925 C1481.08293,1009.21328 1479.21318,1011 1477.00655,1011 L1266.99345,1011 C1264.78793,1011 1262.92457,1009.21229 1262.83161,1007.00925 L1243,537 Z" id="Rectangle-1" fill-opacity="0.699999988" fill="#FFFFFF" sketch:type="MSShapeGroup"></path>
            <path d="M1485.82335,907.078837 L1481.18522,1007.00925 C1481.08293,1009.21328 1479.21318,1011 1477.00655,1011 L1266.99345,1011 C1264.78793,1011 1262.92457,1009.21229 1262.83161,1007.00925 L1258.65318,907.980355 L1248.31522,662.970717 C1264.01746,666.633362 1282.97568,674.549856 1305.35793,689.464473 C1360.65389,726.311429 1447.65586,699.888927 1496.36655,679.920776 L1485.82335,907.078837 Z" id="Rectangle-1-Copy" opacity="0.7" fill="#45DEBB" sketch:type="MSShapeGroup"></path>
            <rect id="Rectangle-19" stroke-opacity="0.200000003" stroke="#FFFFFF" stroke-width="4" fill-opacity="0.2" fill="#FFFFFF" sketch:type="MSShapeGroup" transform="translate(1313.000000, 969.000000) rotate(-30.000000) translate(-1313.000000, -969.000000) " x="1279" y="935" width="68" height="68" rx="12"></rect>
            <rect id="Rectangle-19-Copy-3" stroke-opacity="0.200000003" stroke="#FFFFFF" stroke-width="4" fill-opacity="0.300000012" fill="#FFFFFF" sketch:type="MSShapeGroup" transform="translate(1445.000000, 874.000000) rotate(-30.000000) translate(-1445.000000, -874.000000) " x="1411" y="840" width="68" height="68" rx="12"></rect>
            <rect id="Rectangle-19-Copy" stroke-opacity="0.200000003" stroke="#FFFFFF" stroke-width="4" fill-opacity="0.300000012" fill="#FFFFFF" sketch:type="MSShapeGroup" transform="translate(1377.000000, 984.000000) scale(-1, 1) rotate(-30.000000) translate(-1377.000000, -984.000000) " x="1354.58975" y="961.589746" width="44.8205081" height="44.8205081" rx="12"></rect>
            <rect id="Rectangle-19-Copy-5" stroke-opacity="0.200000003" stroke="#FFFFFF" stroke-width="4" fill-opacity="0.200000003" fill="#FFFFFF" sketch:type="MSShapeGroup" transform="translate(1384.000000, 934.000000) scale(-1, 1) rotate(-73.000000) translate(-1384.000000, -934.000000) " x="1361.58975" y="911.589746" width="44.8205081" height="44.8205081" rx="12"></rect>
            <rect id="Rectangle-19-Copy-4" stroke-opacity="0.200000003" stroke="#FFFFFF" stroke-width="4" fill-opacity="0.300000012" fill="#FFFFFF" sketch:type="MSShapeGroup" transform="translate(1457.831887, 937.789344) scale(-1, 1) rotate(-30.000000) translate(-1457.831887, -937.789344) " x="1435.42163" y="915.37909" width="44.8205081" height="44.8205081" rx="12"></rect>
            <path d="M1253.45361,537 L1243,537 L1262.83161,1007.00925 C1262.92457,1009.21229 1264.78793,1011 1266.99345,1011 L1377,1011 L1276.99345,1011 C1274.78793,1011 1272.92658,1009.21964 1272.83533,1007.00681 L1253.45361,537 Z" id="Rectangle-1-Copy-3" opacity="0.5" fill-opacity="0.699999988" fill="#FFFFFF" sketch:type="MSShapeGroup"></path>
        </g>
    </g>
</svg>