<?xml version="1.0" encoding="UTF-8" standalone="no"?>
<svg width="2880px" height="1440px" viewBox="0 0 2880 1440" version="1.1" xmlns="http://www.w3.org/2000/svg" xmlns:xlink="http://www.w3.org/1999/xlink" xmlns:sketch="http://www.bohemiancoding.com/sketch/ns">
    <!-- Generator: Sketch 3.3 (11970) - http://www.bohemiancoding.com/sketch -->
    <title>VoiceInn</title>
    <desc>Created with Sketch.</desc>
    <defs>
        <path id="path-1" d="M0,530.5 C1.77635684e-15,353.666667 40,0 40,0 L302,0 C302,0 352,348.135417 352,522.203125 C352,698.135417 302,1050 302,1050 L40,1050 C40,1050 0,703.666667 0,530.5 Z"></path>
    </defs>
    <g id="VoiceInn" stroke="none" stroke-width="1" fill="none" fill-rule="evenodd" sketch:type="MSPage">
        <g sketch:type="MSArtboardGroup">
            <rect id="Rectangle-98" fill="#7DD4E7" sketch:type="MSShapeGroup" x="0" y="0" width="2880" height="1440"></rect>
            <rect id="Rectangle-102-Copy-14" fill="#E9D5B9" sketch:type="MSShapeGroup" transform="translate(1580.576676, 647.395220) rotate(-247.000000) translate(-1580.576676, -647.395220) " x="1428.99286" y="556.896449" width="303.16763" height="180.997542" rx="40"></rect>
            <rect id="Rectangle-102-Copy-15" fill="#E9D5B9" sketch:type="MSShapeGroup" transform="translate(1382.515776, 1022.079735) rotate(19.000000) translate(-1382.515776, -1022.079735) " x="1251.27878" y="957.079735" width="262.473988" height="130" rx="40"></rect>
            <g id="Rectangle-99" sketch:type="MSLayerGroup" transform="translate(1274.000000, 250.000000)">
                <mask id="mask-2" sketch:name="Mask" fill="white">
                    <use xlink:href="#path-1"></use>
                </mask>
                <use id="Mask" fill="#5996A3" sketch:type="MSShapeGroup" xlink:href="#path-1"></use>
            </g>
            <path d="M1296.69083,437.945002 C1307.38249,312.074316 1319.81716,202.13112 1319.81716,202.13112 L1570.42458,202.13112 C1570.42458,202.13112 1585.61087,307.868829 1598.86848,429.969324 C1552.12012,456.633992 1498.00835,471.86888 1440.33828,471.86888 C1388.69085,471.86888 1339.89731,459.649875 1296.69082,437.944998 Z" id="Rectangle-99-Copy" opacity="0.05" fill="#000000" sketch:type="MSShapeGroup"></path>
            <path d="M1295.9838,1310.41737 C1306.7255,1183.95768 1319.21836,1073.5 1319.21836,1073.5 L1570.9985,1073.5 C1570.9985,1073.5 1586.25585,1179.73251 1599.5755,1302.40437 C1552.60838,1329.19382 1498.2434,1344.5 1440.30346,1344.5 C1388.41434,1344.5 1339.39248,1332.22382 1295.9838,1310.41737 Z" id="Rectangle-99-Copy-2" opacity="0.05" fill="#000000" sketch:type="MSShapeGroup" transform="translate(1447.779647, 1209.000000) scale(1, -1) translate(-1447.779647, -1209.000000) "></path>
            <g id="Group" sketch:type="MSLayerGroup" transform="translate(1177.000000, -123.000000)">
                <g sketch:type="MSShapeGroup">
                    <ellipse id="Oval-5-Copy-2" fill="#8AA0A6" cx="264.261425" cy="264.261425" rx="171.773756" ry="171.773756"></ellipse>
                    <circle id="Oval-5-Copy-3" stroke="#69B4C4" stroke-width="44" fill="#FFFFFF" cx="264.5" cy="264.5" r="263.625"></circle>
                    <ellipse id="Oval-5-Copy" fill="#F06B67" cx="264.261425" cy="264.261425" rx="171.773756" ry="171.773756"></ellipse>
                    <ellipse id="Oval-5" fill="#4CBCE1" cx="264.022851" cy="264.022851" rx="98.5313348" ry="98.5313348"></ellipse>
                    <ellipse id="Oval-6" fill="#3C778A" cx="263.784276" cy="263.784276" rx="14.075905" ry="14.075905"></ellipse>
                    <path d="M263.784276,230.145249 C271.558184,230.145249 277.860181,223.843252 277.860181,216.069344 C277.860181,208.295436 271.558184,201.993439 263.784276,201.993439 C256.010368,201.993439 249.708371,208.295436 249.708371,216.069344 C249.708371,223.843252 256.010368,230.145249 263.784276,230.145249 Z M293.536363,247.322624 C297.423317,254.055026 306.032005,256.361717 312.764407,252.474763 C319.496809,248.587809 321.8035,239.979121 317.916546,233.246719 C314.029592,226.514318 305.420904,224.207627 298.688502,228.094581 C291.956101,231.981534 289.649409,240.590223 293.536363,247.322624 Z M293.536363,281.677376 C289.649409,288.409777 291.956101,297.018466 298.688502,300.905419 C305.420904,304.792373 314.029592,302.485682 317.916546,295.753281 C321.8035,289.020879 319.496809,280.412191 312.764407,276.525237 C306.032005,272.638283 297.423317,274.944974 293.536363,281.677376 Z M263.784276,298.854751 C256.010368,298.854751 249.708371,305.156748 249.708371,312.930656 C249.708371,320.704564 256.010368,327.006561 263.784276,327.006561 C271.558184,327.006561 277.860181,320.704564 277.860181,312.930656 C277.860181,305.156748 271.558184,298.854751 263.784276,298.854751 Z M234.032189,281.677376 C230.145235,274.944974 221.536547,272.638283 214.804145,276.525237 C208.071743,280.412191 205.765052,289.020879 209.652006,295.753281 C213.53896,302.485682 222.147648,304.792373 228.88005,300.905419 C235.612452,297.018466 237.919143,288.409777 234.032189,281.677376 Z M234.032189,247.322624 C237.919143,240.590223 235.612452,231.981534 228.88005,228.094581 C222.147648,224.207627 213.53896,226.514318 209.652006,233.246719 C205.765052,239.979121 208.071743,248.587809 214.804145,252.474763 C221.536547,256.361717 230.145235,254.055026 234.032189,247.322624 Z" id="Oval-6-Copy" fill="#3B778A"></path>
                </g>
            </g>
            <g id="Group-Copy" sketch:type="MSLayerGroup" transform="translate(1176.000000, 1142.000000)">
                <g id="Group" sketch:type="MSShapeGroup">
                    <ellipse id="Oval-5-Copy-2" fill="#8AA0A6" cx="264.261425" cy="264.261425" rx="171.773756" ry="171.773756"></ellipse>
                    <circle id="Oval-5-Copy-3" stroke="#69B4C4" stroke-width="44" fill="#FFFFFF" cx="264.5" cy="264.5" r="263.625"></circle>
                    <ellipse id="Oval-5-Copy" fill="#F06B67" cx="264.261425" cy="264.261425" rx="171.773756" ry="171.773756"></ellipse>
                    <ellipse id="Oval-5" fill="#4CBCE1" cx="264.022851" cy="264.022851" rx="134.754242" ry="134.754242"></ellipse>
                    <ellipse id="Oval-6" fill="#3C778A" cx="263.784276" cy="263.784276" rx="14.075905" ry="14.075905"></ellipse>
                    <path d="M263.784276,180.860181 C271.558184,180.860181 277.860181,174.558184 277.860181,166.784276 C277.860181,159.010368 271.558184,152.708371 263.784276,152.708371 C256.010368,152.708371 249.708371,159.010368 249.708371,166.784276 C249.708371,174.558184 256.010368,180.860181 263.784276,180.860181 Z M305.104186,191.931817 C311.836587,195.818771 320.445275,193.51208 324.332229,186.779679 C328.219183,180.047277 325.912492,171.438589 319.18009,167.551635 C312.447689,163.664681 303.839001,165.971372 299.952047,172.703774 C296.065093,179.436175 298.371784,188.044864 305.104186,191.931817 Z M335.352459,222.18009 C339.239412,228.912492 347.848101,231.219183 354.580502,227.332229 C361.312904,223.445275 363.619595,214.836587 359.732641,208.104186 C355.845687,201.371784 347.236999,199.065093 340.504597,202.952047 C333.772196,206.839001 331.465505,215.447689 335.352459,222.18009 Z M346.424095,263.5 C346.424095,271.273908 352.726092,277.575905 360.5,277.575905 C368.273908,277.575905 374.575905,271.273908 374.575905,263.5 C374.575905,255.726092 368.273908,249.424095 360.5,249.424095 C352.726092,249.424095 346.424095,255.726092 346.424095,263.5 Z M335.352459,304.81991 C331.465505,311.552311 333.772196,320.160999 340.504597,324.047953 C347.236999,327.934907 355.845687,325.628216 359.732641,318.895814 C363.619595,312.163413 361.312904,303.554725 354.580502,299.667771 C347.848101,295.780817 339.239412,298.087508 335.352459,304.81991 Z M305.104186,335.068183 C298.371784,338.955136 296.065093,347.563825 299.952047,354.296226 C303.839001,361.028628 312.447689,363.335319 319.18009,359.448365 C325.912492,355.561411 328.219183,346.952723 324.332229,340.220321 C320.445275,333.48792 311.836587,331.181229 305.104186,335.068183 Z M263.784276,346.139819 C256.010368,346.139819 249.708371,352.441816 249.708371,360.215724 C249.708371,367.989632 256.010368,374.291629 263.784276,374.291629 C271.558184,374.291629 277.860181,367.989632 277.860181,360.215724 C277.860181,352.441816 271.558184,346.139819 263.784276,346.139819 Z M222.464367,335.068183 C215.731965,331.181229 207.123277,333.48792 203.236323,340.220321 C199.349369,346.952723 201.65606,355.561411 208.388462,359.448365 C215.120863,363.335319 223.729551,361.028628 227.616505,354.296226 C231.503459,347.563825 229.196768,338.955136 222.464367,335.068183 Z M192.216093,304.81991 C188.32914,298.087508 179.720451,295.780817 172.98805,299.667771 C166.255648,303.554725 163.948957,312.163413 167.835911,318.895814 C171.722865,325.628216 180.331553,327.934907 187.063955,324.047953 C193.796356,320.160999 196.103047,311.552311 192.216093,304.81991 Z M181.144457,263.5 C181.144457,255.726092 174.84246,249.424095 167.068552,249.424095 C159.294644,249.424095 152.992647,255.726092 152.992647,263.5 C152.992647,271.273908 159.294644,277.575905 167.068552,277.575905 C174.84246,277.575905 181.144457,271.273908 181.144457,263.5 Z M192.216093,222.18009 C196.103047,215.447689 193.796356,206.839001 187.063955,202.952047 C180.331553,199.065093 171.722865,201.371784 167.835911,208.104186 C163.948957,214.836587 166.255648,223.445275 172.98805,227.332229 C179.720451,231.219183 188.32914,228.912492 192.216093,222.18009 Z M222.464367,191.931817 C229.196768,188.044864 231.503459,179.436175 227.616505,172.703774 C223.729551,165.971372 215.120863,163.664681 208.388462,167.551635 C201.65606,171.438589 199.349369,180.047277 203.236323,186.779679 C207.123277,193.51208 215.731965,195.818771 222.464367,191.931817 Z" id="Oval-6-Copy-3" fill="#3C778A"></path>
                    <path d="M263.784276,230.145249 C271.558184,230.145249 277.860181,223.843252 277.860181,216.069344 C277.860181,208.295436 271.558184,201.993439 263.784276,201.993439 C256.010368,201.993439 249.708371,208.295436 249.708371,216.069344 C249.708371,223.843252 256.010368,230.145249 263.784276,230.145249 Z M293.536363,247.322624 C297.423317,254.055026 306.032005,256.361717 312.764407,252.474763 C319.496809,248.587809 321.8035,239.979121 317.916546,233.246719 C314.029592,226.514318 305.420904,224.207627 298.688502,228.094581 C291.956101,231.981534 289.649409,240.590223 293.536363,247.322624 Z M293.536363,281.677376 C289.649409,288.409777 291.956101,297.018466 298.688502,300.905419 C305.420904,304.792373 314.029592,302.485682 317.916546,295.753281 C321.8035,289.020879 319.496809,280.412191 312.764407,276.525237 C306.032005,272.638283 297.423317,274.944974 293.536363,281.677376 Z M263.784276,298.854751 C256.010368,298.854751 249.708371,305.156748 249.708371,312.930656 C249.708371,320.704564 256.010368,327.006561 263.784276,327.006561 C271.558184,327.006561 277.860181,320.704564 277.860181,312.930656 C277.860181,305.156748 271.558184,298.854751 263.784276,298.854751 Z M234.032189,281.677376 C230.145235,274.944974 221.536547,272.638283 214.804145,276.525237 C208.071743,280.412191 205.765052,289.020879 209.652006,295.753281 C213.53896,302.485682 222.147648,304.792373 228.88005,300.905419 C235.612452,297.018466 237.919143,288.409777 234.032189,281.677376 Z M234.032189,247.322624 C237.919143,240.590223 235.612452,231.981534 228.88005,228.094581 C222.147648,224.207627 213.53896,226.514318 209.652006,233.246719 C205.765052,239.979121 208.071743,248.587809 214.804145,252.474763 C221.536547,256.361717 230.145235,254.055026 234.032189,247.322624 Z" id="Oval-6-Copy" fill="#3B778A"></path>
                    <path d="M263.784276,230.145249 C271.558184,230.145249 277.860181,223.843252 277.860181,216.069344 C277.860181,208.295436 271.558184,201.993439 263.784276,201.993439 C256.010368,201.993439 249.708371,208.295436 249.708371,216.069344 C249.708371,223.843252 256.010368,230.145249 263.784276,230.145249 Z M293.536363,247.322624 C297.423317,254.055026 306.032005,256.361717 312.764407,252.474763 C319.496809,248.587809 321.8035,239.979121 317.916546,233.246719 C314.029592,226.514318 305.420904,224.207627 298.688502,228.094581 C291.956101,231.981534 289.649409,240.590223 293.536363,247.322624 Z M293.536363,281.677376 C289.649409,288.409777 291.956101,297.018466 298.688502,300.905419 C305.420904,304.792373 314.029592,302.485682 317.916546,295.753281 C321.8035,289.020879 319.496809,280.412191 312.764407,276.525237 C306.032005,272.638283 297.423317,274.944974 293.536363,281.677376 Z M263.784276,298.854751 C256.010368,298.854751 249.708371,305.156748 249.708371,312.930656 C249.708371,320.704564 256.010368,327.006561 263.784276,327.006561 C271.558184,327.006561 277.860181,320.704564 277.860181,312.930656 C277.860181,305.156748 271.558184,298.854751 263.784276,298.854751 Z M234.032189,281.677376 C230.145235,274.944974 221.536547,272.638283 214.804145,276.525237 C208.071743,280.412191 205.765052,289.020879 209.652006,295.753281 C213.53896,302.485682 222.147648,304.792373 228.88005,300.905419 C235.612452,297.018466 237.919143,288.409777 234.032189,281.677376 Z M234.032189,247.322624 C237.919143,240.590223 235.612452,231.981534 228.88005,228.094581 C222.147648,224.207627 213.53896,226.514318 209.652006,233.246719 C205.765052,239.979121 208.071743,248.587809 214.804145,252.474763 C221.536547,256.361717 230.145235,254.055026 234.032189,247.322624 Z" id="Oval-6-Copy-2" fill="#3B778A"></path>
                </g>
            </g>
            <path d="M1289.91931,936.623857 C1289.32606,955.080125 1289,972.485462 1289,988.449476 C1289,1011.37872 1289.70144,1037.34434 1290.91856,1065.14007 C1293.2518,1065.56349 1295.65555,1065.78462 1298.11096,1065.78462 L1455.57041,1065.78462 C1491.48587,1065.78462 1520.57803,1036.68312 1520.57803,1000.78462 C1520.57803,964.878214 1491.47313,935.784615 1455.57041,935.784615 L1298.11096,935.784615 C1295.30348,935.784615 1292.56354,936.073741 1289.91931,936.623836 Z" id="Mask-Copy-2" opacity="0.1" fill="#000000" sketch:type="MSShapeGroup"></path>
            <rect id="Rectangle-102-Copy-8" opacity="0.1" fill="#000000" sketch:type="MSShapeGroup" x="1251.10405" y="539" width="303.16763" height="130" rx="40"></rect>
            <rect id="Rectangle-102" fill="#FAE5C6" sketch:type="MSShapeGroup" x="1241.10405" y="529" width="303.16763" height="130" rx="40"></rect>
            <rect id="Rectangle-102-Copy-7" opacity="0.1" fill="#000000" sketch:type="MSShapeGroup" x="1252" y="676.215385" width="349.965318" height="130" rx="40"></rect>
            <rect id="Rectangle-102-Copy" fill="#FAE5C6" sketch:type="MSShapeGroup" x="1235" y="658.215385" width="349.965318" height="130" rx="40"></rect>
            <rect id="Rectangle-102-Copy-6" opacity="0.1" fill="#000000" sketch:type="MSShapeGroup" x="1254.03468" y="799.92" width="349.965318" height="130" rx="40"></rect>
            <rect id="Rectangle-102-Copy-2" fill="#FAE5C6" sketch:type="MSShapeGroup" x="1237.03468" y="787.92" width="349.965318" height="130" rx="40"></rect>
            <rect id="Rectangle-102-Copy-3" fill="#FAE5C6" sketch:type="MSShapeGroup" x="1241.10405" y="916.784615" width="262.473988" height="130" rx="40"></rect>
            <rect id="Rectangle-130" opacity="0.1" fill="#554F47" sketch:type="MSShapeGroup" x="1272" y="915" width="179" height="6" rx="3"></rect>
            <rect id="Rectangle-130-Copy" opacity="0.1" fill="#554F47" sketch:type="MSShapeGroup" x="1272" y="785" width="253" height="6" rx="3"></rect>
            <rect id="Rectangle-130-Copy-2" opacity="0.1" fill="#554F47" sketch:type="MSShapeGroup" x="1272" y="656" width="253" height="6" rx="3"></rect>
            <rect id="Rectangle-121" fill="#E8D4B9" sketch:type="MSShapeGroup" x="1284" y="958" width="10" height="55" rx="5"></rect>
            <rect id="Rectangle-121-Copy-2" fill="#E8D4B9" sketch:type="MSShapeGroup" x="1283" y="822" width="10" height="61" rx="5"></rect>
            <rect id="Rectangle-121-Copy-4" fill="#E8D4B9" sketch:type="MSShapeGroup" x="1283" y="694" width="10" height="57" rx="5"></rect>
            <rect id="Rectangle-121-Copy-6" fill="#E8D4B9" sketch:type="MSShapeGroup" x="1275" y="560" width="10" height="64" rx="5"></rect>
            <rect id="Rectangle-121-Copy" fill="#E8D4B9" sketch:type="MSShapeGroup" x="1302" y="948" width="10" height="74" rx="5"></rect>
            <rect id="Rectangle-121-Copy-11" fill="#E8D4B9" sketch:type="MSShapeGroup" x="1397" y="948" width="10" height="74" rx="5"></rect>
            <rect id="Rectangle-121-Copy-13" fill="#E8D4B9" sketch:type="MSShapeGroup" x="1378" y="948" width="10" height="74" rx="5"></rect>
            <rect id="Rectangle-121-Copy-12" fill="#E8D4B9" sketch:type="MSShapeGroup" x="1262" y="948" width="10" height="74" rx="5"></rect>
            <rect id="Rectangle-121-Copy-3" fill="#E8D4B9" sketch:type="MSShapeGroup" x="1302" y="814" width="10" height="79" rx="5"></rect>
            <rect id="Rectangle-121-Copy-14" fill="#E8D4B9" sketch:type="MSShapeGroup" x="1472" y="814" width="10" height="79" rx="5"></rect>
            <rect id="Rectangle-121-Copy-15" fill="#E8D4B9" sketch:type="MSShapeGroup" x="1452" y="814" width="10" height="79" rx="5"></rect>
            <rect id="Rectangle-121-Copy-10" fill="#E8D4B9" sketch:type="MSShapeGroup" x="1262" y="814" width="10" height="79" rx="5"></rect>
            <rect id="Rectangle-121-Copy-5" fill="#E8D4B9" sketch:type="MSShapeGroup" x="1302" y="684" width="10" height="79" rx="5"></rect>
            <rect id="Rectangle-121-Copy-16" fill="#E8D4B9" sketch:type="MSShapeGroup" x="1462" y="684" width="10" height="79" rx="5"></rect>
            <rect id="Rectangle-121-Copy-17" fill="#E8D4B9" sketch:type="MSShapeGroup" x="1442" y="684" width="10" height="79" rx="5"></rect>
            <rect id="Rectangle-121-Copy-9" fill="#E8D4B9" sketch:type="MSShapeGroup" x="1262" y="684" width="10" height="79" rx="5"></rect>
            <rect id="Rectangle-121-Copy-7" fill="#E8D4B9" sketch:type="MSShapeGroup" x="1292" y="553" width="10" height="79" rx="5"></rect>
            <rect id="Rectangle-121-Copy-18" fill="#E8D4B9" sketch:type="MSShapeGroup" x="1452" y="553" width="10" height="79" rx="5"></rect>
            <rect id="Rectangle-121-Copy-19" fill="#E8D4B9" sketch:type="MSShapeGroup" x="1432" y="553" width="10" height="79" rx="5"></rect>
            <rect id="Rectangle-121-Copy-8" fill="#E8D4B9" sketch:type="MSShapeGroup" x="1258" y="553" width="10" height="79" rx="5"></rect>
            <path d="M1440,933 C1467.17862,933 1489,954.7083 1489,982 C1489,1008.28581 1467.18817,1030 1440,1030 L1440,1030 C1433.92487,1030 1429,1025.07316 1429,1018.99086 L1429,944.009135 C1429,937.928958 1433.92088,933 1440,933 L1440,933 Z" id="Rectangle-102-Copy-10" fill="#FFF8ED" sketch:type="MSShapeGroup"></path>
            <path d="M1521,804 C1548.17862,804 1570,825.932097 1570,853 C1570,880.061953 1548.18817,902 1521,902 L1521,902 C1514.92487,902 1510,897.073004 1510,890.996075 L1510,815.003925 C1510,808.926625 1514.92088,804 1521,804 L1521,804 Z" id="Rectangle-102-Copy-11" fill="#FFF8ED" sketch:type="MSShapeGroup"></path>
            <path d="M1519,671 C1546.17862,671 1568,692.932097 1568,720 C1568,747.061953 1546.18817,769 1519,769 L1519,769 C1512.92487,769 1508,764.073004 1508,757.996075 L1508,671 L1519,671 Z" id="Rectangle-102-Copy-12" fill="#FFF8ED" sketch:type="MSShapeGroup"></path>
            <path d="M1695.70964,607.772884 L1707.47887,580.046314 C1716.10921,559.714505 1706.62445,536.224674 1686.28879,527.592701 L1593.32159,488.130464 C1572.98908,479.499828 1549.50245,488.987582 1540.86975,509.32494 L1471.25713,673.322013 C1467.70757,681.684241 1465.59958,690.296381 1464.82119,698.881543 C1494.46309,723.993245 1538.54357,726.206013 1570.87395,701.843322 L1695.70964,607.772884 Z" id="Rectangle-102-Copy-16" opacity="0.1" fill="#000000" sketch:type="MSShapeGroup"></path>
            <rect id="Rectangle-102-Copy-4" fill="#FAE4C6" sketch:type="MSShapeGroup" transform="translate(1552.033405, 585.364224) rotate(-217.000000) translate(-1552.033405, -585.364224) " x="1400.44959" y="494.865453" width="303.16763" height="180.997542" rx="40"></rect>
            <rect id="Rectangle-128" fill="#E8D4B9" sketch:type="MSShapeGroup" transform="translate(1616.997979, 537.865766) rotate(-217.000000) translate(-1616.997979, -537.865766) " x="1606.99798" y="476.365766" width="20" height="123" rx="10"></rect>
            <rect id="Rectangle-128-Copy" fill="#E8D4B9" sketch:type="MSShapeGroup" transform="translate(1643.000000, 513.500000) rotate(-217.000000) translate(-1643.000000, -513.500000) " x="1633" y="452" width="20" height="123" rx="10"></rect>
            <path d="M1550.86989,685.233968 C1516.87217,710.853092 1468.5487,704.068236 1442.92382,670.062871 C1417.30457,636.064983 1424.09367,587.738103 1458.09439,562.116721 L1460.4954,560.307432 C1465.35064,556.648745 1472.25531,557.622408 1475.90297,562.463014 L1555.44572,668.01982 C1559.09984,672.869002 1558.13188,679.761668 1553.2709,683.424679 L1550.86989,685.233968 Z" id="Rectangle-102-Copy-13" fill="#FFF8ED" sketch:type="MSShapeGroup"></path>
        </g>
    </g>
</svg>