<?xml version="1.0" encoding="UTF-8" standalone="no"?>
<svg width="2880px" height="1440px" viewBox="0 0 2880 1440" version="1.1" xmlns="http://www.w3.org/2000/svg" xmlns:xlink="http://www.w3.org/1999/xlink" xmlns:sketch="http://www.bohemiancoding.com/sketch/ns">
    <!-- Generator: Sketch 3.3 (11970) - http://www.bohemiancoding.com/sketch -->
    <title>Gulp</title>
    <desc>Created with Sketch.</desc>
    <defs></defs>
    <g id="Gulp" stroke="none" stroke-width="1" fill="none" fill-rule="evenodd" sketch:type="MSPage">
        <g sketch:type="MSArtboardGroup">
            <rect id="Rectangle-1" fill="#CF4646" sketch:type="MSShapeGroup" x="0" y="0" width="2880" height="1440"></rect>
            <circle id="Oval-2" stroke="#FFFFFF" stroke-width="22" sketch:type="MSShapeGroup" cx="1440" cy="501" r="172"></circle>
            <rect id="Rectangle-50" fill="#CF4646" sketch:type="MSShapeGroup" x="1368" y="632" width="146" height="88"></rect>
            <g id="Group" sketch:type="MSLayerGroup" transform="translate(500.000000, 373.000000)">
                <path d="M989,382.968709 L989,179 L891,179 L891,383.072353 C903.155631,381.795361 915.49657,381.140648 927.990383,381.140648 L953.009617,381.140648 C965.160992,381.140648 977.167732,381.759949 989,382.968709 Z" id="Rectangle-6" fill="#FFFFFF" sketch:type="MSShapeGroup"></path>
                <path d="M1311.97423,730 L1312.00989,730 C1324.15469,730 1334,739.852482 1334,751.998154 L1334,894.001846 C1334,905.819202 1324.68672,915.460184 1313.00001,915.978104 L1313,756.997173 C1313,747.913131 1312.65392,738.909918 1311.97423,730 Z" id="Rectangle-10-Copy" fill="#FFFFFF" sketch:type="MSShapeGroup"></path>
                <path d="M548,730 C560.144425,730.000446 569.989288,739.852757 569.989288,751.998154 L569.989288,894.001846 C569.989288,905.819202 560.676009,915.460184 548.989298,915.978104 L548.989288,756.494767 C548.989288,747.581324 548.655588,738.745798 548,730 Z" id="Rectangle-10-Copy-2" fill="#FFFFFF" sketch:type="MSShapeGroup" transform="translate(558.994644, 822.989052) scale(-1, 1) translate(-558.994644, -822.989052) "></path>
                <rect id="Rectangle-2" fill="#FFFFFF" sketch:type="MSShapeGroup" x="590" y="407" width="700" height="1500" rx="350"></rect>
                <circle id="Oval-1-Copy" fill="#CF4646" sketch:type="MSShapeGroup" cx="940.5" cy="127.5" r="127.5"></circle>
                <circle id="Oval-1" fill="#FFFFFF" sketch:type="MSShapeGroup" cx="940" cy="128" r="104"></circle>
                <path d="M624,742.002761 C624,729.850972 633.779241,718.851057 645.854004,717.504905 C645.854004,717.504905 786.0625,700 937.984375,700 C1089.90625,700 1222.156,717.393045 1222.156,717.393045 C1234.22011,718.832827 1244,729.848281 1244,742.002761 L1244,941.997239 C1244,954.149028 1234.15179,964 1222.00224,964 L645.997756,964 C633.848731,964 624,954.151719 624,941.997239 L624,742.002761 Z" id="Rectangle-3" opacity="0.3" fill="#CF4646" sketch:type="MSShapeGroup"></path>
                <path d="M655,771.55127 C655,759.397794 664.77783,748.397567 676.860653,747.052641 C676.860653,747.052641 813.403024,730 961.894405,730 C1110.38579,730 1239.16075,746.942394 1239.16075,746.942394 C1251.22223,748.380024 1261,759.393934 1261,771.55127 L1261,965.994185 C1261,978.147661 1251.14293,988 1239.0067,988 L676.993297,988 C664.846734,988 655,978.15152 655,965.994185 L655,771.55127 Z" id="Rectangle-3-Copy" opacity="0.3" fill="#CF4646" sketch:type="MSShapeGroup"></path>
                <rect id="Rectangle-4" opacity="0.5" fill="#FFFFFF" sketch:type="MSShapeGroup" transform="translate(1160.000000, 820.500000) rotate(-45.000000) translate(-1160.000000, -820.500000) " x="1140" y="748" width="40" height="145" rx="20"></rect>
                <path d="M949.416797,108.267241 L962.574074,59 L885,136.732759 L938.583203,136.732759 L925.425926,186 L1003,108.267241 L949.416797,108.267241 Z" id="Triangle-1" fill="#CF4646" sketch:type="MSShapeGroup"></path>
                <rect id="Rectangle-4-Copy" opacity="0.5" fill="#FFFFFF" sketch:type="MSShapeGroup" transform="translate(1180.000000, 801.500000) rotate(-45.000000) translate(-1180.000000, -801.500000) " x="1160" y="753" width="40" height="97" rx="20"></rect>
                <rect id="Rectangle-7" fill="#CF4646" sketch:type="MSShapeGroup" x="632" y="1005" width="620" height="187" rx="22"></rect>
                <rect id="Rectangle-7-Copy" opacity="0.5" fill="#FFFFFF" sketch:type="MSShapeGroup" x="668" y="1035" width="549" height="187" rx="22"></rect>
                <path d="M94,791 L94,823.999152 C94,835.128776 102.268457,844.33014 113,845.796277 L113,929 L79.4925358,929 C67.358805,929 57.5,938.851389 57.5,951.003692 L57.5,1182.99631 C57.5,1195.1567 67.3463937,1205 79.4925358,1205 L176.507464,1205 C188.641195,1205 198.5,1195.14861 198.5,1182.99631 L198.5,951.003692 C198.5,938.843301 188.653606,929 176.507464,929 L143,929 L143,845.796349 L143,845.796349 C153.732651,844.330542 162,835.130187 162,823.999152 L162,791 L226,791 L226,791.063185 L256,791.063185 L256,570.059142 C256,563.437483 250.623967,558.063185 243.992293,558.063185 L238.007707,558.063185 C231.363399,558.063185 226,563.433958 226,570.059142 L226,761 L30,761 L30,570.059142 C30,563.437483 24.6239666,558.063185 17.9922932,558.063185 L12.0077068,558.063185 C5.36339879,558.063185 0,563.433958 0,570.059142 L0,791.063185 L30,791.063185 L30,791 L94,791 Z" id="Rectangle-12" fill="#FFFFFF" sketch:type="MSShapeGroup"></path>
                <path d="M1717.43681,791 L1717.43681,823.999152 C1717.43681,835.128776 1725.70527,844.33014 1736.43681,845.796277 L1736.43681,929 L1702.92935,929 C1690.79562,929 1680.93681,938.851389 1680.93681,951.003692 L1680.93681,1182.99631 C1680.93681,1195.1567 1690.78321,1205 1702.92935,1205 L1799.94428,1205 C1812.07801,1205 1821.93681,1195.14861 1821.93681,1182.99631 L1821.93681,951.003692 C1821.93681,938.843301 1812.09042,929 1799.94428,929 L1766.43681,929 L1766.43681,845.796349 L1766.43681,845.796349 C1777.16947,844.330542 1785.43681,835.130187 1785.43681,823.999152 L1785.43681,791 L1849.43681,791 L1849.43681,791.063185 L1879.43681,791.063185 L1879.43681,570.059142 C1879.43681,563.437483 1874.06078,558.063185 1867.42911,558.063185 L1861.44452,558.063185 C1854.80021,558.063185 1849.43681,563.433958 1849.43681,570.059142 L1849.43681,761 L1653.43681,761 L1653.43681,570.059142 C1653.43681,563.437483 1648.06078,558.063185 1641.42911,558.063185 L1635.44452,558.063185 C1628.80021,558.063185 1623.43681,563.433958 1623.43681,570.059142 L1623.43681,791.063185 L1653.43681,791.063185 L1653.43681,791 L1717.43681,791 Z" id="Rectangle-12-Copy" fill="#FFFFFF" sketch:type="MSShapeGroup"></path>
            </g>
        </g>
    </g>
</svg>